<svg xmlns="http://www.w3.org/2000/svg" xmlns:xlink="http://www.w3.org/1999/xlink" version="1.1" x="0px" y="0px" viewBox="0 0 48 60" style="enable-background:new 0 0 48 48;" xml:space="preserve"><style type="text/css">
	.st0{fill:#FFFFFF;}
	.st1{fill:none;stroke:#000000;stroke-width:3;stroke-linecap:round;stroke-miterlimit:10;}
</style><path d="M24,13.5c0,1.9-1.6,3.5-3.5,3.5S17,15.4,17,13.5s1.6-3.5,3.5-3.5S24,11.5,24,13.5z M7,29.5c-1.9,0-3.5,1.6-3.5,3.5  s1.6,3.5,3.5,3.5s3.5-1.6,3.5-3.5S9,29.5,7,29.5z M30.5,30c-1.9,0-3.5,1.6-3.5,3.5s1.6,3.5,3.5,3.5s3.5-1.6,3.5-3.5S32.4,30,30.5,30  z M25,34c-0.3,0-0.7,0-1,0c-5.5,0-10-4.5-10-10c0-2.6,1-4.9,2.6-6.7c-0.7-0.8-1.3-1.7-1.5-2.8C12.6,16.9,11,20.3,11,24  c0,7.2,5.8,13,13,13c0.7,0,1.4-0.1,2.1-0.2C25.5,36,25.1,35,25,34z M43.1,4.9c-0.6-0.6-1.5-0.6-2.1,0l-3.2,3.2C34.1,4.9,29.3,3,24,3  C12.4,3,3,12.4,3,24c0,1.4,0.1,2.9,0.4,4.2c0.8-0.6,1.8-1,2.9-1.2C6.1,26.1,6,25,6,24c0-9.9,8.1-18,18-18c4.4,0,8.5,1.6,11.6,4.3  l-3.5,3.5c-1.9-1.5-4.1-2.5-6.7-2.7c0.4,0.7,0.6,1.5,0.6,2.4c0,0.2,0,0.5-0.1,0.7c1.5,0.3,2.8,0.9,4,1.8l-5.2,5.2  C24.5,21,24.3,21,24,21c-1.7,0-3,1.3-3,3s1.3,3,3,3s3-1.3,3-3c0-0.3,0-0.5-0.1-0.8L43.1,7.1C43.6,6.5,43.6,5.5,43.1,4.9z M24,42  c-4.8,0-9.2-1.9-12.5-5c-0.7,0.8-1.6,1.4-2.5,1.7c3.8,3.9,9.1,6.3,15,6.3c5.8,0,11-2.4,14.8-6.2l-2.1-2.1C33.5,40,29,42,24,42z"/><text x="0" y="63" fill="#000000" font-size="5px" font-weight="bold" font-family="'Helvetica Neue', Helvetica, Arial-Unicode, Arial, Sans-serif">Created by Kenneth Chua</text><text x="0" y="68" fill="#000000" font-size="5px" font-weight="bold" font-family="'Helvetica Neue', Helvetica, Arial-Unicode, Arial, Sans-serif">from the Noun Project</text></svg>