<?xml version="1.0" encoding="utf-8"?>
<!-- Svg Vector Icons : http://www.onlinewebfonts.com/icon -->
<!DOCTYPE svg PUBLIC "-//W3C//DTD SVG 1.1//EN" "http://www.w3.org/Graphics/SVG/1.1/DTD/svg11.dtd">
<svg version="1.1" xmlns="http://www.w3.org/2000/svg" xmlns:xlink="http://www.w3.org/1999/xlink" x="0px" y="0px" viewBox="0 0 1000 1000" enable-background="new 0 0 1000 1000" xml:space="preserve">
<metadata> Svg Vector Icons : http://www.onlinewebfonts.com/icon </metadata>
<g><g transform="translate(0.000000,119.000000) scale(0.100000,-0.100000)"><path d="M1443.9,114.4L399-930.5l210.7-228.3c114.1-122.9,245.8-219.5,298.5-219.5c52.7,0,360,263.4,684.9,588.3l597.1,588.3v-3529.8v-3529.8h351.2h351.2v3529.8v3529.8l614.6-605.8l614.6-605.8l263.4,254.6l263.4,254.6L3709.2,52.9C3182.4,571,2699.5,1036.4,2620.4,1080.3C2515.1,1141.8,2251.7,922.2,1443.9,114.4z"/><path d="M7107.4-3766.6v-3529.8l-597.1,588.3c-324.8,324.9-632.1,588.3-684.9,588.3c-52.8,0-184.5-96.6-298.5-219.5l-210.8-228.3l1071.2-1071.2L7458.6-8710l1071.2,1071.2L9601-6567.6l-210.7,228.3c-114.2,122.9-245.9,219.5-298.6,219.5c-52.7,0-360-263.4-685-588.3l-597-588.3v3529.8v3529.8h-351.2h-351.2V-3766.6z"/></g></g>
</svg>